<?xml version="1.0" encoding="UTF-8"?>
<svg id="uuid-bbf35709-94ec-49cd-a777-c3f8c2214cb8" data-name="Artwork" xmlns="http://www.w3.org/2000/svg" viewBox="0 0 733.88 260.74">
  <defs>
    <style>
      .uuid-6a75cb42-232c-432a-ab47-d84673f9f0c3 {
        fill: #231f20;
      }
    </style>
  </defs>
  <path class="uuid-6a75cb42-232c-432a-ab47-d84673f9f0c3" d="M365.26,223.17l-22.41-78.66h11.39l-.42,1.07c-.53,1.36-.6,2.86-.2,4.27l17.12,59.95,17-59.51c.48-1.69.37-3.49-.31-5.11l-.19-.46h11.12l-.19.45c-.69,1.63-.8,3.44-.32,5.14l16.99,59.49,17.15-60.03c.39-1.36.34-2.8-.15-4.13l-.41-1.13h11.31l-22.42,78.69c-.38,1.34-.38,2.76,0,4.1l.64,2.29h-12.26l.65-2.27c.39-1.35.39-2.78,0-4.14l-16.56-57.98-16.56,57.98c-.39,1.35-.39,2.78,0,4.14l.65,2.27h-12.3l.66-2.26c.39-1.36.4-2.8,0-4.15ZM80.43,146.42l.77-2.18h-11.39l.77,2.18c.3.83.45,1.71.45,2.6v27.68h-34.58v-27.68c0-.88.15-1.75.44-2.57l.78-2.21h-11.39l.78,2.2c.29.83.44,1.71.44,2.59v75.04c0,.78-.12,1.56-.36,2.31l-.86,2.74h11.4l-.87-2.73c-.24-.75-.36-1.54-.36-2.32v-38.41h34.58v38.42c0,.78-.12,1.56-.36,2.31l-.86,2.72h11.39l-.86-2.72c-.24-.75-.36-1.53-.36-2.31v-75.07c0-.88.15-1.75.44-2.59ZM466.8,146.51l.77-2.27h-11.39l.77,2.27c.3.88.45,1.8.45,2.72v74.78c0,.82-.13,1.64-.37,2.42l-.85,2.68h11.39l-.85-2.68c-.25-.78-.37-1.6-.37-2.42v-74.79c0-.92.15-1.84.45-2.71ZM511.79,144.24h0s-26.55,0-26.55,0l-3.49.04v10.3l2.25-.87c.88-.34,1.82-.52,2.77-.52h14.88v70.81c0,.82-.13,1.64-.37,2.43l-.84,2.68h11.39l-.84-2.67c-.25-.79-.37-1.61-.37-2.43v-70.81h14.88c.95,0,1.89.18,2.77.52l2.25.87v-10.3l-3.49-.04h-15.24ZM178.1,186.67c0,23.5-19.12,42.62-42.62,42.62s-42.62-19.12-42.62-42.62,19.12-42.62,42.62-42.62,42.62,19.12,42.62,42.62ZM135.48,153.13c-18.49,0-33.54,15.04-33.54,33.54s15.04,33.54,33.54,33.54,33.54-15.04,33.54-33.54-15.04-33.54-33.54-33.54ZM335.75,186.67c0,23.5-19.12,42.62-42.62,42.62s-42.62-19.12-42.62-42.62,19.12-42.62,42.62-42.62,42.62,19.12,42.62,42.62ZM293.13,153.13c-18.49,0-33.54,15.04-33.54,33.54s15.04,33.54,33.54,33.54,33.54-15.04,33.54-33.54-15.04-33.54-33.54-33.54ZM545.48,144.28v10.13l2.27-.77c.87-.3,1.79-.45,2.71-.45h26.07l-31.83,74.83h41.25s4.08-.03,4.08-.03v-10.35l-2.55,1.01c-.68.27-1.41.41-2.15.41h-26.74l31.83-74.83-44.94.04ZM149.54,118.27h11.43l-.9-2.98c-.22-.72-.33-1.46-.33-2.21V37.97c0-.84.14-1.67.4-2.46l.81-2.41h-11.43l.82,2.4c.27.8.41,1.63.41,2.47v33.18l-39.75-37.85-.31-.2h-9.71l.82,2.4c.27.8.41,1.63.41,2.47v75.11c0,.75-.11,1.49-.32,2.21l-.9,2.98h11.43l-.9-2.98c-.22-.72-.33-1.46-.33-2.21V46.36l39.56,37.68v29.04c0,.75-.11,1.49-.32,2.21l-.9,2.98ZM696.69,118.27h11.43l-.9-2.98c-.22-.72-.33-1.46-.33-2.21V37.97c0-.84.14-1.67.4-2.46l.81-2.41h-11.43l.82,2.4c.27.8.41,1.63.41,2.47v33.18l-39.75-37.85-.31-.2h-9.71l.82,2.4c.27.8.41,1.63.41,2.47v75.11c0,.75-.11,1.49-.32,2.21l-.9,2.98h11.43l-.9-2.98c-.22-.72-.33-1.46-.33-2.21V46.36l39.56,37.68v29.04c0,.75-.11,1.49-.32,2.21l-.9,2.98ZM281.13,88.89l22.1,29.43h-15.35l.76-1.68c.49-1.09.35-2.37-.37-3.33l-17.71-23.58h-5.37v23.24c0,.82.12,1.63.35,2.41l.86,2.87h-11.53l.89-2.82c.26-.82.39-1.67.39-2.53V38.23c0-1.07-.2-2.12-.6-3.11l-.69-1.73h11.49,0s7.4,0,7.4,0c14.84,0,27.53,11.26,28.65,26.06,1.04,13.74-8.17,26.17-21.28,29.44ZM274.33,42.34h-9.13v38.44h8.69c10.75,0,19.84-8.8,19.65-19.55-.18-10.45-8.73-18.89-19.22-18.89ZM216.76,199.71l22.1,29.43h-15.35l.76-1.68c.49-1.09.35-2.37-.37-3.33l-17.71-23.58h-5.37v23.24c0,.82.12,1.63.35,2.41l.86,2.87h-11.53l.89-2.82c.26-.82.39-1.67.39-2.53v-74.69c0-1.07-.2-2.12-.6-3.11l-.69-1.73h11.49,0s7.4,0,7.4,0c14.84,0,27.53,11.26,28.65,26.06,1.04,13.74-8.17,26.17-21.28,29.44ZM209.95,153.16h-9.13v38.44h8.69c10.75,0,19.84-8.8,19.65-19.55s-8.73-18.89-19.22-18.89ZM241.72,75.82c0,23.43-19.17,42.49-42.74,42.49h-11.16l-.82.04h-8.64s-1.94,0-1.94,0l.88-2.98c.23-.77.34-1.57.34-2.37V38.29c0-.92-.15-1.83-.45-2.7l-.78-2.28h11.42v.03s11.15,0,11.15,0c23.57,0,42.74,19.06,42.74,42.49ZM198.98,42.29h-12.27v67.07h12.27c18.63,0,33.78-15.04,33.78-33.53s-15.15-33.53-33.78-33.53ZM366.7,33.39h-48.65l.68,1.79c.36.95.55,1.95.55,2.97v74.73c0,.88-.14,1.75-.41,2.59l-.94,2.89h1.95l46.82-.03v-10.46l-1.58.7c-1.03.46-2.15.69-3.28.69h-33.6v-29.17h29.65c.99,0,1.97.18,2.89.54l2.13.82v-11.71l-2.28.87c-.91.35-1.88.52-2.85.52h-29.54v-28.77h33.33c1.02,0,2.04.19,2.99.56l2.14.83v-10.35ZM433.19,33.39h-48.65l.68,1.79c.36.95.55,1.95.55,2.97v74.73c0,.88-.14,1.75-.41,2.59l-.94,2.89h1.95l46.82-.03v-10.46l-1.58.7c-1.03.46-2.15.69-3.28.69h-33.6v-29.17h29.65c.99,0,1.97.18,2.89.54l2.13.82v-11.71l-2.28.87c-.91.35-1.88.52-2.85.52h-29.54v-28.77h33.33c1.02,0,2.04.19,2.99.56l2.14.83v-10.35ZM631.93,33.39h-48.65l.68,1.79c.36.95.55,1.95.55,2.97v74.73c0,.88-.14,1.75-.41,2.59l-.94,2.89h1.95l46.82-.03v-10.46l-1.58.7c-1.03.46-2.15.69-3.28.69h-33.6v-29.17h29.65c.99,0,1.97.18,2.89.54l2.13.82v-11.71l-2.28.87c-.91.35-1.88.52-2.85.52h-29.54v-28.77h33.33c1.02,0,2.04.19,2.99.56l2.14.83v-10.35ZM568.47,94.6c0-16.11-12.81-21.19-23.1-25.27-10.49-4.16-16.93-7.17-16.93-16.14,0-7.33,5.9-12.65,14.03-12.65,5.71,0,10.69,3.4,12.86,8.44.73,1.71.75,3.64.15,5.4l-.26.78h12l-.96-2.34c-.34-.84-.63-1.7-.8-2.59-2.06-10.96-11.74-19.09-23-19.09-13.35,0-23.42,9.48-23.42,22.04,0,15.81,12.68,20.83,22.86,24.87,10.28,4.08,16.72,7.07,17.14,15.61.4,7.95-4.66,15.13-12.4,17.02-9.36,2.28-18-3.36-20.23-11.82-.37-1.41-.27-2.91.2-4.29l.52-1.54h-12l.72,1.76c.42,1.03.72,2.11.86,3.21,1.69,12.78,12.71,22.58,25.75,22.58,14.34,0,26-11.66,26-26ZM501.97,94.6c0-16.11-12.81-21.19-23.1-25.27-10.49-4.16-16.93-7.17-16.93-16.14,0-7.33,5.9-12.65,14.03-12.65,5.71,0,10.69,3.4,12.86,8.44.73,1.71.75,3.64.15,5.4l-.26.78h12l-.96-2.34c-.34-.84-.63-1.7-.8-2.59-2.06-10.96-11.74-19.09-23-19.09-13.35,0-23.42,9.48-23.42,22.04,0,15.81,12.68,20.83,22.86,24.87,10.28,4.08,16.72,7.07,17.14,15.61.4,7.95-4.66,15.13-12.4,17.02-9.36,2.28-18-3.36-20.23-11.82-.37-1.41-.27-2.91.2-4.29l.52-1.54h-12l.72,1.76c.42,1.03.72,2.11.86,3.21,1.69,12.78,12.71,22.58,25.75,22.58,14.34,0,26-11.66,26-26ZM63.1,37.75l22.65,74.68c.36,1.18.86,2.32,1.49,3.38l1.34,2.26h-12.94l1.03-2.37c.42-.96.48-2.04.18-3.04l-9.9-32.65h-19.59s-9.91,32.67-9.91,32.67c-.3.99-.24,2.06.16,3.02l1.02,2.39h-12.87l1.27-2.13c.63-1.07,1.14-2.21,1.5-3.4l22.68-74.8c.27-.9.28-1.86.03-2.76l-.47-1.68h12.87l-.49,1.45c-.33.97-.34,2.02-.05,3.01ZM57.15,47.7l-7.18,23.67h14.36s-7.18-23.67-7.18-23.67Z"/>
</svg>