<svg width="179" height="48" viewBox="0 0 179 48" fill="none" xmlns="http://www.w3.org/2000/svg">
<path fill-rule="evenodd" clip-rule="evenodd" d="M87.7646 20.034C88.3672 20.0341 88.8826 20.1392 89.3108 20.3494C89.744 20.5547 90.1001 20.82 90.3789 21.1454C90.6578 21.4708 90.8694 21.8087 91.0138 22.1591H91.1184V20.1842H94.7561V31.7632C94.7561 32.7393 94.5121 33.5628 94.0241 34.2336C93.5361 34.9044 92.8538 35.4125 91.9774 35.7579C91.101 36.1084 90.0876 36.2835 88.9373 36.2835C87.8468 36.2835 86.9131 36.1309 86.1362 35.8255C85.3594 35.5202 84.7494 35.1021 84.3062 34.5715C83.863 34.0409 83.5966 33.4401 83.507 32.7693L86.9654 32.5741C87.0301 32.8094 87.1496 33.0146 87.3239 33.1898C87.5032 33.365 87.7347 33.5002 88.0185 33.5953C88.3074 33.6904 88.646 33.738 89.0344 33.738C89.6469 33.738 90.1524 33.5878 90.5507 33.2874C90.9541 32.9921 91.1557 32.474 91.1557 31.7331V29.7057H91.0288C90.8844 30.0611 90.6653 30.379 90.3715 30.6593C90.0777 30.9396 89.7116 31.1599 89.2734 31.3201C88.8402 31.4802 88.3422 31.5604 87.7795 31.5604C86.9429 31.5604 86.1761 31.3651 85.4789 30.9747C84.7868 30.5792 84.2315 29.9684 83.8132 29.1425C83.3999 28.3115 83.1933 27.2427 83.1933 25.9361C83.1933 24.5895 83.4074 23.4807 83.8356 22.6096C84.2639 21.7336 84.8241 21.0853 85.5163 20.6648C86.2134 20.2443 86.9629 20.034 87.7646 20.034ZM89.0494 22.9025C88.5962 22.9025 88.2128 23.0276 87.8991 23.2779C87.5853 23.5282 87.3463 23.8812 87.182 24.3367C87.0227 24.7873 86.9429 25.3204 86.9429 25.9361C86.9429 26.5519 87.0252 27.08 87.1895 27.5205C87.3538 27.961 87.5903 28.299 87.8991 28.5342C88.2128 28.7695 88.5962 28.8872 89.0494 28.8872C89.4925 28.8872 89.871 28.7695 90.1847 28.5342C90.4984 28.299 90.7399 27.961 90.9092 27.5205C91.0785 27.08 91.1632 26.5519 91.1632 25.9361C91.1632 25.3104 91.0785 24.7722 90.9092 24.3217C90.7449 23.8661 90.5034 23.5157 90.1847 23.2704C89.871 23.0252 89.4925 22.9025 89.0494 22.9025Z" fill="white"/>
<path fill-rule="evenodd" clip-rule="evenodd" d="M118.805 20.034C119.621 20.0341 120.368 20.1617 121.046 20.417C121.723 20.6723 122.308 21.0503 122.801 21.5508C123.294 22.0514 123.677 22.6697 123.951 23.4056C124.225 24.1365 124.362 24.975 124.362 25.9211V26.8372H116.713V26.9348C116.713 27.4054 116.805 27.8184 116.99 28.1738C117.174 28.5242 117.435 28.7971 117.774 28.9923C118.113 29.1876 118.516 29.2852 118.984 29.2852C119.308 29.2852 119.601 29.2401 119.865 29.15C120.129 29.0599 120.356 28.9272 120.545 28.752C120.734 28.5768 120.876 28.3616 120.971 28.1063L124.325 28.2038C124.185 28.9597 123.879 29.618 123.406 30.1787C122.938 30.7344 122.323 31.1674 121.561 31.4778C120.799 31.7832 119.918 31.9358 118.917 31.9358C117.717 31.9358 116.681 31.698 115.809 31.2225C114.943 30.7419 114.276 30.0586 113.808 29.1725C113.345 28.2815 113.113 27.2227 113.113 25.9962C113.113 24.8048 113.347 23.7635 113.815 22.8725C114.283 21.9764 114.943 21.2806 115.795 20.785C116.646 20.2844 117.649 20.034 118.805 20.034ZM118.879 22.6847C118.471 22.6847 118.105 22.7773 117.781 22.9626C117.458 23.1428 117.201 23.3906 117.012 23.7059C116.832 24.0005 116.734 24.3334 116.716 24.7046H120.963C120.958 24.3142 120.866 23.9662 120.687 23.6609C120.508 23.3555 120.261 23.1177 119.948 22.9475C119.639 22.7723 119.283 22.6847 118.879 22.6847Z" fill="white"/>
<path fill-rule="evenodd" clip-rule="evenodd" d="M130.532 20.034C131.349 20.034 132.096 20.1617 132.773 20.417C133.45 20.6723 134.035 21.0502 134.528 21.5508C135.021 22.0514 135.405 22.6697 135.679 23.4056C135.952 24.1365 136.089 24.975 136.089 25.9211V26.8372H128.441V26.9348C128.441 27.4054 128.533 27.8184 128.717 28.1738C128.901 28.5242 129.163 28.7971 129.501 28.9923C129.84 29.1876 130.243 29.2852 130.711 29.2852C131.035 29.2852 131.329 29.2401 131.593 29.15C131.857 29.0599 132.083 28.9272 132.272 28.752C132.462 28.5768 132.604 28.3616 132.698 28.1063L136.052 28.2038C135.913 28.9597 135.606 29.618 135.133 30.1787C134.665 30.7344 134.05 31.1674 133.288 31.4778C132.526 31.7832 131.645 31.9358 130.644 31.9358C129.444 31.9358 128.408 31.698 127.537 31.2225C126.67 30.7419 126.003 30.0586 125.535 29.1725C125.072 28.2815 124.84 27.2227 124.84 25.9962C124.84 24.8048 125.074 23.7635 125.542 22.8725C126.011 21.9764 126.67 21.2806 127.522 20.785C128.373 20.2844 129.377 20.0341 130.532 20.034ZM130.607 22.6847C130.198 22.6847 129.832 22.7774 129.509 22.9626C129.185 23.1428 128.929 23.3906 128.739 23.7059C128.56 24.0005 128.461 24.3334 128.443 24.7046H132.691C132.686 24.3142 132.594 23.9662 132.414 23.6609C132.235 23.3555 131.989 23.1177 131.675 22.9475C131.366 22.7723 131.01 22.6847 130.607 22.6847Z" fill="white"/>
<path fill-rule="evenodd" clip-rule="evenodd" d="M49.8241 31.718H45.8503L44.8419 28.4892H39.559L38.5527 31.718H34.5789L39.7403 16.3396H44.6627L49.8241 31.718ZM40.4389 25.6658H43.9602L42.2575 20.2143H42.138L40.4389 25.6658Z" fill="white"/>
<path d="M54.222 31.718H50.5246V16.3396H54.222V31.718Z" fill="white"/>
<path d="M69.8355 19.3582H62.8665V22.512H69.2902V25.5382H62.8665V28.6994H69.8355V31.718H59.1691V16.3396H69.8355V19.3582Z" fill="white"/>
<path d="M78.2931 20.034C79.0998 20.0341 79.7995 20.2168 80.392 20.5822C80.9896 20.9427 81.4527 21.4483 81.7813 22.099C82.115 22.7448 82.2793 23.5007 82.2743 24.3667V31.718H78.6217V25.0279C78.6164 24.4157 78.4546 23.935 78.1362 23.5858C77.8125 23.2254 77.3619 23.0452 76.7842 23.0452C76.4008 23.0452 76.0622 23.1303 75.7684 23.3005C75.4796 23.4657 75.2555 23.7034 75.0961 24.0138C74.9418 24.3242 74.8621 24.6996 74.8571 25.1402V31.718H71.2045V20.1842H74.6778V22.3018H74.8048C75.0588 21.5959 75.492 21.0427 76.1045 20.6423C76.717 20.2368 77.4465 20.034 78.2931 20.034Z" fill="white"/>
<path d="M99.7907 31.718H96.1381V20.1842H99.7907V31.718Z" fill="white"/>
<path d="M108.258 20.034C109.064 20.0341 109.764 20.2168 110.357 20.5822C110.954 20.9427 111.417 21.4482 111.746 22.099C112.079 22.7448 112.244 23.5007 112.239 24.3667V31.718H108.586V25.0279C108.581 24.4157 108.419 23.935 108.101 23.5858C107.777 23.2254 107.326 23.0452 106.749 23.0452C106.365 23.0452 106.027 23.1303 105.733 23.3005C105.444 23.4657 105.22 23.7034 105.061 24.0138C104.906 24.3242 104.827 24.6996 104.822 25.1402V31.718H101.169V20.1842H104.642V22.3018H104.769C105.023 21.5959 105.457 21.0427 106.069 20.6423C106.682 20.2368 107.411 20.034 108.258 20.034Z" fill="white"/>
<path d="M143.35 20.0266C143.519 20.0266 143.694 20.039 143.873 20.0641C144.052 20.0841 144.219 20.1167 144.373 20.1617V23.353C144.199 23.2929 143.97 23.2454 143.686 23.2104C143.407 23.1753 143.158 23.1578 142.939 23.1578C142.506 23.1578 142.115 23.2554 141.766 23.4507C141.423 23.6409 141.151 23.9087 140.952 24.2541C140.758 24.5945 140.661 24.995 140.661 25.4555V31.718H137.008V20.1842H140.556V22.2867H140.676C140.885 21.5258 141.226 20.9602 141.699 20.5897C142.172 20.2143 142.722 20.0266 143.35 20.0266Z" fill="white"/>
<path d="M97.9681 15.3334C98.486 15.3334 98.9267 15.5061 99.2902 15.8515C99.6587 16.1919 99.843 16.6024 99.843 17.083C99.843 17.5686 99.6587 17.9841 99.2902 18.3295C98.9267 18.6699 98.486 18.8401 97.9681 18.8401C97.4552 18.8401 97.0145 18.6699 96.646 18.3295C96.2775 17.9841 96.0933 17.5686 96.0933 17.083C96.0933 16.6024 96.2775 16.1919 96.646 15.8515C97.0145 15.5061 97.4552 15.3334 97.9681 15.3334Z" fill="white"/>
<path fill-rule="evenodd" clip-rule="evenodd" d="M179 48H0V0H179V48ZM4.20682 43.7709H174.793V4.2291H4.20682V43.7709Z" fill="white"/>
</svg>
