<svg width="118" height="20" viewBox="0 0 118 20" fill="none" xmlns="http://www.w3.org/2000/svg">
<g clip-path="url(#clip0_3176_6183)">
<path fill-rule="evenodd" clip-rule="evenodd" d="M6.81969 11.9081C7.34472 11.9081 8.3891 11.8785 9.8327 11.2692C11.5149 10.559 14.8619 9.2699 17.2762 7.94576C18.9648 7.01963 19.7049 5.79474 19.7049 4.14523C19.705 1.85589 17.8949 0 15.6621 0H6.30704C3.09989 0 0.5 2.66571 0.5 5.95406C0.5 9.2424 2.93427 11.9081 6.81969 11.9081Z" fill="#355146"/>
<path fill-rule="evenodd" clip-rule="evenodd" d="M8.40234 16.0108C8.40234 14.3989 9.34877 12.9456 10.8008 12.3277L13.7469 11.0741C16.7269 9.80599 20.0069 12.0514 20.0069 15.3595C20.0069 17.9226 17.9801 20.0001 15.4803 19.9994L12.2906 19.9985C10.143 19.998 8.40234 18.2128 8.40234 16.0108Z" fill="#D18EE2"/>
<path d="M3.8476 12.6914H3.84753C1.99874 12.6914 0.5 14.2281 0.5 16.1237V16.5683C0.5 18.4639 1.99874 20.0005 3.84753 20.0005H3.8476C5.69639 20.0005 7.19513 18.4639 7.19513 16.5683V16.1237C7.19513 14.2281 5.69639 12.6914 3.8476 12.6914Z" fill="#FF7759"/>
</g>
<path d="M33.1859 19.996C36.0834 19.996 38.6193 18.5105 39.6218 15.5114C39.8164 14.9108 39.5373 14.5117 38.981 14.5117H37.8939C37.3926 14.5117 37.0584 14.7395 36.8343 15.2252C35.9714 16.9687 34.7723 17.5955 33.2685 17.5955C30.5931 17.5955 28.9497 15.6807 28.9497 12.4821C28.9497 9.28348 30.6501 7.36874 33.2115 7.36874C34.7723 7.36874 36.0539 8.05402 36.8619 9.68256C37.1135 10.1683 37.4182 10.396 37.9214 10.396H39.0085C39.5648 10.396 39.8439 10.0252 39.6493 9.481C38.4797 6.22392 35.8593 4.96826 33.1859 4.96826C29.1463 4.96826 26.1367 8.0258 26.1367 12.4821C26.1367 16.9384 29.0067 19.996 33.1859 19.996ZM106.098 11.168C106.459 8.73929 108.075 7.22564 110.277 7.22564C112.479 7.22564 114.122 8.76751 114.316 11.168H106.098ZM110.389 19.996C112.952 19.996 115.516 18.7685 116.77 15.9972C117.076 15.3401 116.797 14.8826 116.241 14.8826H115.211C114.71 14.8826 114.403 15.1103 114.151 15.5679C113.316 17.0815 111.867 17.7104 110.391 17.7104C107.855 17.7104 106.212 15.9387 106.017 13.0545H116.243C116.799 13.0545 117.163 12.7401 117.163 12.1395C117.051 7.65494 114.21 4.97027 110.281 4.97027C106.351 4.97027 103.232 7.88471 103.232 12.4841C103.232 17.0835 106.269 19.998 110.393 19.998L110.389 19.996ZM94.1734 12.855H95.0934C95.6497 12.855 95.9564 12.5406 96.0409 11.9399C96.5716 8.08022 98.7752 7.56828 101.118 7.68316C101.62 7.70735 102.031 7.3123 102.031 6.79633V5.91152C102.031 5.34113 101.751 4.99647 101.195 4.96826C99.1212 4.88763 97.2714 5.61725 96.2021 7.68316C96.1431 7.79603 95.978 7.7658 95.9642 7.63882L95.7912 6.08082C95.7362 5.51043 95.4295 5.22423 94.8713 5.22423H90.6646C90.1731 5.22423 89.7721 5.63338 89.7721 6.13927V6.62501C89.7721 7.12889 90.1711 7.54006 90.6646 7.54006H92.3924C92.8839 7.54006 93.2849 7.94921 93.2849 8.4551V11.9399C93.2849 12.4438 93.6839 12.855 94.1773 12.855H94.1734ZM90.4129 19.7118H99.133C99.6893 19.7118 100.025 19.3691 100.025 18.7967V18.311C100.025 17.7406 99.6913 17.3959 99.133 17.3959H96.9038C96.3475 17.3959 96.0114 17.0533 96.0114 16.4809V14.9088C96.0114 14.3384 95.6772 13.9938 95.1189 13.9938H94.1714C93.6151 13.9938 93.279 14.3364 93.279 14.9088V16.4809C93.279 17.0513 92.9448 17.3959 92.3866 17.3959H90.409C89.8527 17.3959 89.5165 17.7386 89.5165 18.311V18.7967C89.5165 19.3671 89.8507 19.7118 90.409 19.7118H90.4129ZM76.9554 11.17C77.3171 8.74131 78.9329 7.22765 81.1346 7.22765C83.3362 7.22765 84.9796 8.76952 85.1742 11.17H76.9554ZM81.2466 19.998C83.81 19.998 86.3733 18.7705 87.6275 15.9992C87.9341 15.3421 87.655 14.8846 87.0987 14.8846H86.0686C85.5673 14.8846 85.2607 15.1124 85.0091 15.5699C84.1736 17.0835 82.7249 17.7124 81.2486 17.7124C78.7128 17.7124 77.0694 15.9407 76.8748 13.0565H87.1006C87.6569 13.0565 88.0206 12.7421 88.0206 12.1415C87.9086 7.65696 85.068 4.97229 81.1385 4.97229C77.209 4.97229 74.0893 7.88673 74.0893 12.4861C74.0893 17.0856 77.1264 20 81.2505 20L81.2466 19.998ZM49.0122 19.998C53.1914 19.998 56.1734 16.8276 56.1734 12.4841C56.1734 8.14068 53.1914 4.97027 49.0122 4.97027C44.833 4.97027 41.851 8.19913 41.851 12.4841C41.851 13.4838 42.018 14.5984 42.5193 15.8259C42.7709 16.4265 43.2447 16.5111 43.7459 16.1403L44.5539 15.5397C44.9726 15.2252 45.0827 14.8544 44.9431 14.3122C44.721 13.5987 44.6639 12.9699 44.6639 12.4277C44.6639 9.4286 46.4194 7.37075 49.0102 7.37075C51.6011 7.37075 53.3565 9.39837 53.3565 12.4841C53.3565 15.5699 51.6286 17.5975 49.0653 17.5975C48.1728 17.5975 47.3374 17.4262 46.3348 16.6542C45.9161 16.3116 45.5269 16.2552 45.0807 16.5978L44.4674 17.0553C43.9661 17.4262 43.9111 17.9401 44.3828 18.3412C45.8316 19.5405 47.5025 19.998 49.0083 19.998H49.0122ZM59.7098 19.7118H60.6298C61.1212 19.7118 61.5222 19.3026 61.5222 18.7967V11.9702C61.5222 9.08596 63.0261 7.37075 65.3673 7.37075C67.4844 7.37075 68.711 8.79976 68.711 11.428V18.7987C68.711 19.3026 69.1101 19.7138 69.6035 19.7138H70.551C71.0424 19.7138 71.4434 19.3046 71.4434 18.7987V10.9705C71.4434 7.11478 69.5209 4.97229 66.2617 4.97229C64.0423 4.97229 62.7312 5.90346 61.7522 7.19944C61.6775 7.2982 61.5262 7.24378 61.5262 7.12083V0.915046C61.5203 0.40915 61.1212 0 60.6298 0H59.7098C59.2184 0 58.8174 0.40915 58.8174 0.915046V18.7967C58.8174 19.3006 59.2164 19.7118 59.7098 19.7118Z" fill="#355146"/>
<defs>
<clipPath id="clip0_3176_6183">
<rect width="19.5062" height="20" fill="white" transform="translate(0.5)"/>
</clipPath>
</defs>
</svg>
