<svg xmlns="http://www.w3.org/2000/svg" fill="none" viewBox="0 0 41 46" height="46" width="41">
<path fill="white" d="M20.4999 0L40.3886 11.3939V34.1819L20.4999 45.5758L0.611328 34.1819V11.3939L20.4999 0ZM38.2416 12.6239L20.4999 2.46L2.75836 12.6239V32.9518L20.4999 43.1158L38.2416 32.9518V12.6239Z" clip-rule="evenodd" fill-rule="evenodd"></path>
<path fill="white" d="M20.4994 43.1154V32.9515V22.7875L11.6286 17.7057L2.75781 12.6237V22.7875V32.9515L20.4994 43.1154Z" clip-rule="evenodd" fill-rule="evenodd"></path>
<path fill="#87E0E1" d="M29.3689 38.0339L38.2397 32.9519L29.3689 27.87L20.498 32.9519V43.1158L29.3689 38.0339Z"></path>
<path fill="#1B46DD" d="M20.498 22.7878V32.9517L29.3689 27.8698L20.498 22.7878Z"></path>
<path fill="#B068E9" d="M29.3689 17.7059L20.498 22.7878L29.3689 27.8698L38.2397 22.7878L29.3689 17.7059Z"></path>
<path fill="#F9DB4E" d="M29.3702 7.54197L20.4994 2.46001L11.6286 7.54197L2.75781 12.6239L11.6286 17.706L20.4994 12.6239L29.3702 17.706L38.241 12.6239L29.3702 7.54197Z"></path>
<path fill="#E94A5D" d="M20.4997 22.788L29.3705 17.7061L20.4997 12.6241L11.6289 17.7061L20.4997 22.788Z"></path>
</svg>
